<svg id="caidat" xmlns="http://www.w3.org/2000/svg" viewBox="0 0 17.229 17.229">
  <defs>
    <style>
      .cls-1 {
        fill: none;
      }

      .cls-2 {
        fill: #a4a3b9;
      }
    </style>
  </defs>
  <path id="Path_28" data-name="Path 28" class="cls-1" d="M0,0H17.229V17.229H0Z"/>
  <path id="Path_29" data-name="Path 29" class="cls-2" d="M25.444,19.819a5.618,5.618,0,0,0,.043-.672,4.251,4.251,0,0,0-.052-.672l1.456-1.137a.356.356,0,0,0,.086-.439L25.6,14.512a.35.35,0,0,0-.422-.155l-1.714.689a5.051,5.051,0,0,0-1.163-.672l-.258-1.826a.344.344,0,0,0-.345-.293H18.94a.335.335,0,0,0-.336.293l-.258,1.826a5.18,5.18,0,0,0-1.163.672l-1.714-.689a.341.341,0,0,0-.422.155L13.668,16.9a.334.334,0,0,0,.086.439l1.456,1.137a4.058,4.058,0,0,0-.009,1.344l-1.456,1.137a.356.356,0,0,0-.086.439l1.378,2.386a.35.35,0,0,0,.422.155l1.714-.689a5.051,5.051,0,0,0,1.163.672l.258,1.826a.35.35,0,0,0,.345.293H21.7a.329.329,0,0,0,.336-.293l.258-1.826a5.18,5.18,0,0,0,1.163-.672l1.714.689a.341.341,0,0,0,.422-.155l1.378-2.386a.334.334,0,0,0-.086-.439Zm-5.126,1.912A2.584,2.584,0,1,1,22.9,19.147,2.592,2.592,0,0,1,20.318,21.731Z" transform="translate(-11.704 -10.532)"/>
</svg>
