<svg xmlns="http://www.w3.org/2000/svg" xmlns:xlink="http://www.w3.org/1999/xlink" viewBox="0 0 133.8 133.8">
  <defs>
    <style>
      .cls-1 {
        fill: #8de3b0;
      }

      .cls-2 {
        fill: #f0b97d;
      }

      .cls-3 {
        fill: #15bdb1;
      }

      .cls-4 {
        fill: #f1f1f1;
      }

      .cls-5 {
        fill: #20d0c2;
      }

      .cls-6 {
        fill: #fed198;
      }

      .cls-7 {
        fill: #666;
      }

      .cls-8 {
        fill: #fff;
      }

      .cls-9 {
        fill: #ecf0f1;
      }

      .cls-10 {
        fill: #377bb9;
      }

      .cls-11 {
        fill: #fbb429;
      }

      .cls-12 {
        fill: #333;
      }

      .cls-13 {
        fill: #c8cacc;
      }

      .cls-14 {
        filter: url(#Path_281);
      }
    </style>
    <filter id="Path_281" x="0" y="0" width="133.8" height="133.8" filterUnits="userSpaceOnUse">
      <feOffset dy="3" input="SourceAlpha"/>
      <feGaussianBlur stdDeviation="3" result="blur"/>
      <feFlood flood-color="#a4a1fb" flood-opacity="0.302"/>
      <feComposite operator="in" in2="blur"/>
      <feComposite in="SourceGraphic"/>
    </filter>
  </defs>
  <g id="can_duyet" transform="translate(9 6)">
    <g class="cls-14" transform="matrix(1, 0, 0, 1, -9, -6)">
      <path id="Path_281-2" data-name="Path 281" class="cls-1" d="M57.9,115.8A57.9,57.9,0,1,0,0,57.9a58.012,58.012,0,0,0,57.9,57.9Zm0,0" transform="translate(9 6)"/>
    </g>
    <path id="Path_282" data-name="Path 282" class="cls-2" d="M171.211,156.523h10.8l.876,9.105,1.554,1.247,3.279,2.087L176.613,195.2,165.5,168.962l3.278-2.087,1.555-1.247Zm0,0" transform="translate(-118.714 -112.272)"/>
    <path id="Path_283" data-name="Path 283" class="cls-3" d="M77.165,195.352l-15.839,5.054a5.649,5.649,0,0,0-2.353,3.13c-4.718,5.055-19.828,21.573-19.828,25.768,0,4.97,12.9,16.941,12.9,16.941h6.122v4.289H113.79v-4.289h6.122s12.9-11.971,12.9-16.941c0-4.2-15.113-20.715-19.83-25.769a5.653,5.653,0,0,0-2.353-3.129L94.9,195.42l-1.335,3.915-7.586-.369-7.476.363Zm-19,28.958,1.962,7.83-.347,8.272-1.616-1.85-5.638-8.052Zm55.625,14.254-1.615,1.749-.348-9.609,1.963-6.4,5.638,6.2Zm0,0" transform="translate(-28.078 -140.123)"/>
    <path id="Path_284" data-name="Path 284" class="cls-4" d="M167.678,195.523l-2.131.68,11.1,26.974,11.195-26.913-2.275-.721-5.57,3.443h-6.678Zm0,0" transform="translate(-118.745 -140.246)"/>
    <path id="Path_285" data-name="Path 285" class="cls-5" d="M163.3,195.352l-3.417,1.09-.656,8.668s.181.712.723.648l3.084,1.16a.354.354,0,0,1,.021.457l-2.639,1.808,9.116,17.182q1.28.073,2.58.074t2.579-.074l9.116-17.182-2.638-1.808a.353.353,0,0,1,.021-.457l3.083-1.16c.542.064.723-.648.723-.648l-.655-8.639-3.31-1.05-8.921,26.16Zm0,0" transform="translate(-114.209 -140.123)"/>
    <path id="Path_286" data-name="Path 286" class="cls-6" d="M180.483,65.562c0,.846.309,1.675.286,2.487,2.895-.538,1.5,8.061-.141,9.243-.129.094-.449-.116-.72-.288-.568,3.163-5.417,11.614-8.5,15.17-.856.988-6.092.972-6.94.039-3.157-3.477-8-12.027-8.571-15.209-.271.172-.591.382-.721.288-1.638-1.183-3.036-9.781-.14-9.243-.023-.812.285-1.641.285-2.487.16-6.677,6.211-10.01,12.582-10.039,6.37.029,12.42,3.362,12.581,10.039Zm0,0" transform="translate(-110.002 -39.826)"/>
    <path id="Path_287" data-name="Path 287" class="cls-7" d="M177.871,48.92a4.9,4.9,0,0,1,4.606,4.393,44.059,44.059,0,0,1,.207,6.7,3.025,3.025,0,0,0-2.175,2.468c-.243,1.981-.07,1.981-.07,1.981l-.7-.157-.5-3.4c-2.891-1.811.021-4.494-2.87-5.122-7.808,5.565-14.7,4.613-17.8,1.995,0,0,.725,2.738.167,3.714a4.207,4.207,0,0,0-.225,2.516l-.727-.035s.131-4.033-1.481-4.015c-6.125-10.112,13.267-22.676,21.569-11.044Zm0,0" transform="translate(-111.27 -31.743)"/>
    <path id="Path_288" data-name="Path 288" class="cls-8" d="M175.624,184.133a31.417,31.417,0,0,1-2.644,3.229l2.444,8.306,6.551-4.852c-3.6-1.755-5.755-4.028-6.351-6.683Zm0,0" transform="translate(-124.076 -132.076)"/>
    <path id="Path_289" data-name="Path 289" class="cls-8" d="M211.149,184.133a31.417,31.417,0,0,0,2.644,3.229l-2.444,8.306-6.552-4.852c3.6-1.755,5.756-4.028,6.352-6.683Zm0,0" transform="translate(-146.898 -132.076)"/>
    <path id="Path_290" data-name="Path 290" class="cls-9" d="M87.454,358.281c3.694,0,6.688,1.859,6.688,4.151s-2.994,4.15-6.688,4.15-6.688-1.859-6.688-4.15,2.994-4.151,6.688-4.151Zm0,1.1c-2.875,0-5.2,1.368-5.2,3.055s2.329,3.055,5.2,3.055,5.2-1.368,5.2-3.055-2.33-3.055-5.2-3.055Zm0,0" transform="translate(-57.932 -256.99)"/>
    <path id="Path_291" data-name="Path 291" class="cls-10" d="M91.22,368.269c2.867,0,5.2-1.373,5.2-3.055s-2.338-3.055-5.2-3.055-5.2,1.372-5.2,3.055,2.337,3.055,5.2,3.055Zm0,0" transform="translate(-61.698 -259.772)"/>
    <path id="Path_292" data-name="Path 292" class="cls-11" d="M89.729,366.554V369.9a.756.756,0,0,1-.754.754h-1.33a.756.756,0,0,1-.754-.754v-5.177a.772.772,0,0,1,.034-.226v-1.14a1.766,1.766,0,0,1,1.761-1.761H99.578a1.765,1.765,0,0,1,1.76,1.761v1.138a.746.746,0,0,1,.035.23V369.9a.756.756,0,0,1-.754.754h-1.33a.756.756,0,0,1-.754-.754v-3.345H97.493V369.9a.757.757,0,0,1-.755.754h-1.33a.756.756,0,0,1-.754-.754v-3.345H93.611V369.9a.756.756,0,0,1-.754.754H91.526a.756.756,0,0,1-.754-.754v-3.345Zm0,0" transform="translate(-62.326 -259.367)"/>
    <path id="Path_293" data-name="Path 293" class="cls-9" d="M288.214,358.281c-3.693,0-6.687,1.859-6.687,4.151s2.994,4.15,6.687,4.15,6.688-1.859,6.688-4.15-2.994-4.151-6.688-4.151Zm0,1.1c2.875,0,5.2,1.368,5.2,3.055s-2.33,3.055-5.2,3.055-5.2-1.368-5.2-3.055,2.329-3.055,5.2-3.055Zm0,0" transform="translate(-201.936 -256.99)"/>
    <path id="Path_294" data-name="Path 294" class="cls-12" d="M291.977,368.269c2.867,0,5.2-1.373,5.2-3.055s-2.338-3.055-5.2-3.055-5.2,1.372-5.2,3.055,2.338,3.055,5.2,3.055Zm0,0" transform="translate(-205.698 -259.772)"/>
    <path id="Path_295" data-name="Path 295" class="cls-11" d="M283.128,366.554V369.9a.756.756,0,0,0,.754.754h1.331a.756.756,0,0,0,.754-.754v-5.177a.773.773,0,0,0-.035-.226v-1.14a1.766,1.766,0,0,0-1.762-1.761h-10.89a1.766,1.766,0,0,0-1.762,1.761v1.138a.747.747,0,0,0-.035.23V369.9a.756.756,0,0,0,.754.754h1.331a.757.757,0,0,0,.754-.754v-3.345h1.042V369.9a.757.757,0,0,0,.755.754h1.33a.755.755,0,0,0,.754-.754v-3.345h1.042V369.9a.757.757,0,0,0,.755.754h1.33a.756.756,0,0,0,.754-.754v-3.345Zm0,0" transform="translate(-194.732 -259.367)"/>
    <path id="Path_296" data-name="Path 296" class="cls-8" d="M90.487,244.16h59.665a3.473,3.473,0,0,1,3.464,3.463V280.6a3.474,3.474,0,0,1-3.464,3.464H90.487a3.475,3.475,0,0,1-3.464-3.464V247.623a3.474,3.474,0,0,1,3.464-3.463Zm0,0" transform="translate(-62.42 -175.133)"/>
    <path id="Path_297" data-name="Path 297" class="cls-13" d="M88.337,391.316H152.3a1.319,1.319,0,0,1,1.314,1.317v2.534a1.318,1.318,0,0,1-1.314,1.315H88.337a1.318,1.318,0,0,1-1.314-1.315v-2.534a1.319,1.319,0,0,1,1.314-1.317Zm0,0" transform="translate(-62.42 -280.686)"/>
    <path id="Path_298" data-name="Path 298" class="cls-9" d="M121.621,382.5h5.654v3.855h-5.654Zm41.379,0h5.653v3.855H163Zm0,0" transform="translate(-87.237 -274.362)"/>
    <path id="Path_299" data-name="Path 299" class="cls-9" d="M181.84,297.074h12.544a.306.306,0,0,1,.306.3v2.84a.306.306,0,0,1-.306.3H181.84a.305.305,0,0,1-.3-.3v-2.84a.306.306,0,0,1,.3-.3Zm0,0" transform="translate(-130.213 -213.087)"/>
  </g>
</svg>
