<svg xmlns="http://www.w3.org/2000/svg" xmlns:xlink="http://www.w3.org/1999/xlink" viewBox="0 0 133.8 133.8">
  <defs>
    <style>
      .cls-1 {
        fill: #5dddd3;
      }

      .cls-2 {
        fill: #c8cacc;
      }

      .cls-3 {
        fill: #fff;
      }

      .cls-4 {
        fill: #ecf0f1;
      }

      .cls-5 {
        fill: #20d0c2;
      }

      .cls-6 {
        fill: #ff5b61;
      }

      .cls-7 {
        fill: #0e7886;
      }

      .cls-8 {
        fill: #fed198;
      }

      .cls-9 {
        fill: #ec4b53;
      }

      .cls-10 {
        fill: #666;
      }

      .cls-11 {
        filter: url(#Path_316);
      }
    </style>
    <filter id="Path_316" x="0" y="0" width="133.8" height="133.8" filterUnits="userSpaceOnUse">
      <feOffset dy="3" input="SourceAlpha"/>
      <feGaussianBlur stdDeviation="3" result="blur"/>
      <feFlood flood-color="#a4a1fb" flood-opacity="0.302"/>
      <feComposite operator="in" in2="blur"/>
      <feComposite in="SourceGraphic"/>
    </filter>
  </defs>
  <g id="dang_dich" transform="translate(9 5.999)">
    <g class="cls-11" transform="matrix(1, 0, 0, 1, -9, -6)">
      <path id="Path_316-2" data-name="Path 316" class="cls-1" d="M57.9,0A57.9,57.9,0,1,1,0,57.9,57.9,57.9,0,0,1,57.9,0Zm0,0" transform="translate(9 6)"/>
    </g>
    <path id="Path_317" data-name="Path 317" class="cls-2" d="M57.872,329.7h1.477c8.676.089,17.047,1.746,23.589,5.711,6.556-3.965,15.444-5.62,24.121-5.711h1.475a97.09,97.09,0,0,1,22.6,3.129v3.346c-17.6-4.414-36.175-4.253-44.135.987a3.945,3.945,0,0,1-4.034,1.282,3.28,3.28,0,0,1-3.547-1.282c-7.96-5.24-26.539-5.4-44.136-.987v-3.346a97.154,97.154,0,0,1,22.6-3.129Zm0,0" transform="translate(-25.304 -236.486)"/>
    <path id="Path_318" data-name="Path 318" class="cls-3" d="M35.281,110.334c16.654-5.082,38.032-5.049,47.926,2.853,9.895-7.9,31.273-7.935,47.925-2.853v62.632c-16.451-4.18-35.393-5.039-47.925,2.839-12.532-7.878-31.473-7.019-47.926-2.839V110.334Zm0,0" transform="translate(-25.307 -76.628)"/>
    <path id="Path_319" data-name="Path 319" class="cls-4" d="M193.312,121.84a20.649,20.649,0,0,1,3.247,2.112,20.892,20.892,0,0,1,3.1-2.034v62.937a32.1,32.1,0,0,0-3.1,1.715l-2.966-1.649-.281-63.082Zm0,0" transform="translate(-138.66 -87.393)"/>
    <path id="Path_320" data-name="Path 320" class="cls-5" d="M83.207,132.02c-10.7-10.553-34.592-7.276-47.926-3.893v-.733c13.4-3.371,36.83-6.495,47.926,3.745,11.094-10.24,34.522-7.118,47.925-3.745v.733c-13.335-3.384-37.23-6.66-47.925,3.893Zm0,4.681c10.7-10.553,34.59-7.277,47.925-3.893v-.733c-13.4-3.371-36.831-6.494-47.925,3.746-11.1-10.24-34.521-7.117-47.926-3.746v.733c13.334-3.384,37.23-6.66,47.926,3.893Zm0,4.681c10.7-10.553,34.59-7.276,47.925-3.894v-.732c-13.4-3.372-36.831-6.495-47.925,3.745-11.1-10.241-34.521-7.118-47.926-3.745v.732c13.334-3.384,37.23-6.66,47.926,3.894Zm0,4.68c-10.7-10.553-34.592-7.276-47.926-3.893v-.733c13.4-3.37,36.83-6.495,47.926,3.745,11.094-10.24,34.522-7.116,47.925-3.745v.733c-13.335-3.384-37.23-6.66-47.925,3.893Zm0,4.681c-10.7-10.553-34.592-7.277-47.926-3.893v-.733c13.4-3.371,36.83-6.494,47.926,3.745,11.094-10.24,34.522-7.117,47.925-3.745v.733c-13.335-3.384-37.23-6.66-47.925,3.893Zm0,4.681c10.7-10.553,34.59-7.276,47.925-3.893V150.8c-13.4-3.372-36.831-6.495-47.925,3.745-11.1-10.241-34.521-7.118-47.926-3.745v.733c13.334-3.384,37.23-6.662,47.926,3.893Zm0,4.681c10.7-10.553,34.59-7.278,47.925-3.894v-.733c-13.4-3.371-36.831-6.495-47.925,3.745-11.1-10.241-34.521-7.116-47.926-3.745v.733c13.334-3.384,37.23-6.66,47.926,3.894Zm0,4.68c-10.7-10.553-34.592-7.276-47.926-3.893v-.733c13.4-3.372,36.83-6.494,47.926,3.745,11.094-10.24,34.522-7.118,47.925-3.745v.733c-13.335-3.384-37.23-6.66-47.925,3.893Zm0,4.681c-10.7-10.553-34.592-7.276-47.926-3.893v-.733c13.4-3.373,36.83-6.495,47.926,3.745,11.094-10.241,34.522-7.118,47.925-3.745v.733c-13.335-3.384-37.23-6.66-47.925,3.893Zm0,4.681c10.7-10.553,34.59-7.278,47.925-3.894v-.733c-13.4-3.37-36.831-6.493-47.925,3.745-11.1-10.241-34.521-7.116-47.926-3.745v.733c13.334-3.384,37.23-6.66,47.926,3.894Zm0,4.68c10.7-10.553,34.59-7.276,47.925-3.893V174.2c-13.4-3.372-36.831-6.495-47.925,3.745-11.1-10.24-34.521-7.118-47.926-3.745v.733c13.334-3.384,37.23-6.66,47.926,3.893Zm0,4.681c-10.7-10.554-34.592-7.276-47.926-3.893v-.733c13.4-3.372,36.83-6.495,47.926,3.745,11.094-10.241,34.522-7.118,47.925-3.745v.733c-13.335-3.384-37.23-6.661-47.925,3.893Zm0,0" transform="translate(-25.307 -89.057)"/>
    <path id="Path_321" data-name="Path 321" class="cls-6" d="M73.059,110.236l.764-.12v62.942l-.764.111Zm0,0" transform="translate(-52.404 -78.984)"/>
    <path id="Path_322" data-name="Path 322" class="cls-6" d="M334.6,110.236l-.765-.12v62.942l.765.111Zm0,0" transform="translate(-239.456 -78.984)"/>
    <path id="Path_323" data-name="Path 323" class="cls-2" d="M226.422,11.165,252.629,23.8c1.386,1.057.984,7.584.816,8.8s-1,.79-1.907-.158,1.938-6.463-.386-7.471L222.195,12.413a2.507,2.507,0,0,1,1.224-1.213,5.814,5.814,0,0,1,3-.035h0Zm0,0" transform="translate(-159.377 -7.885)"/>
    <path id="Path_324" data-name="Path 324" class="cls-2" d="M272.064,38.278,243.6,32.238c-1.743-.013-5.419,5.394-6.03,6.458s.3,1.235,1.6,1.042,2.422-6.3,4.877-5.672l30.588,7.785a2.519,2.519,0,0,0-.225-1.708,5.832,5.832,0,0,0-2.352-1.864Zm0,0" transform="translate(-170.268 -23.124)"/>
    <path id="Path_325" data-name="Path 325" class="cls-3" d="M259.945,28.478c-.289.517-.573,1.037-.857,1.547q-.8,1.428-1.583,2.861c-2.183,3.972-9.94,2.331-12.786-.023a3.434,3.434,0,0,1-.348-.334,6.529,6.529,0,0,1-1.347-2.86,18,18,0,0,1-.43-3.732c-.02-.774.032-1.639-.01-2.415.028-.122.057-.241.089-.356l5.164,2.24c2.322,1.008-.525,6.523.386,7.471s1.737,1.373,1.9.158.571-7.74-.816-8.8l-.1-.049,11.225,2.857a4.363,4.363,0,0,1-.489,1.434Zm-15.814-7.919,13.725,2.912a42.6,42.6,0,0,0-12.915-3.529,4.292,4.292,0,0,0-.809.616Zm-25.741-6.28c-.087.585-.181,1.171-.269,1.748q-.245,1.617-.5,3.232c-.7,4.476,6.436,7.926,10.128,7.8a3.684,3.684,0,0,0,.479-.05,6.536,6.536,0,0,0,2.817-1.439,18.076,18.076,0,0,0,2.624-2.688c.488-.6.977-1.315,1.484-1.9.053-.114.1-.226.147-.336l-5.454-1.388c-2.455-.625-3.577,5.481-4.877,5.672s-2.215.022-1.6-1.042,4.286-6.471,6.03-6.458l.111.023L218.88,12.846a4.345,4.345,0,0,0-.49,1.432Zm17.354,3.414-12.638-6.1a42.624,42.624,0,0,1,12.375,5.111,4.365,4.365,0,0,1,.263.984Zm0,0" transform="translate(-156.061 -8.318)"/>
    <path id="Path_326" data-name="Path 326" class="cls-7" d="M213.86.28c3.181.068,16.426,4.3,17.779,5.819.15.168,3.141,2.148,3.138,2.154l1.261.535,1.326.35c0-.007,3.577.256,3.8.214,1.99-.368,14.984,4.356,17.6,6.26.731.29,1.478.622,1.459.764a9.665,9.665,0,0,1-1.015,2.658,5.3,5.3,0,0,1-1,0,2.063,2.063,0,0,0-.378.468c-.524.861-2.614,4.646-3.325,5.939-2.8,5.1-11.788,3.592-15.527.5-3.375-2.794-2.689-9.581-2.8-10.878a5.171,5.171,0,0,1,.077-1.094c-.5-.578-1.137-1.2-1.574-1.193-.341-.272-1.226-.171-1.974-.02a5.138,5.138,0,0,1-.608.913c-.885.955-4.5,6.743-8.875,6.887-4.851.159-12.879-4.148-11.975-9.895.228-1.46.892-5.73,1-6.733a3.09,3.09,0,0,0,.012-.636,4.481,4.481,0,0,1-.673-.527A9.775,9.775,0,0,1,212.41.039c.067-.114.75.043,1.449.24Zm-.06,5.681c-.087.586-.18,1.171-.269,1.748q-.245,1.617-.5,3.232c-.7,4.477,6.436,7.927,10.128,7.806a3.349,3.349,0,0,0,.479-.051,6.533,6.533,0,0,0,2.817-1.437,18.018,18.018,0,0,0,2.622-2.689c.49-.6.978-1.315,1.487-1.9a5.228,5.228,0,0,0,.327-4.274C227.9,6.39,218,1.892,215.3,3.418a3.669,3.669,0,0,0-1.5,2.544Zm41.555,14.2a3.671,3.671,0,0,0,.369-2.932c-1.2-2.854-11.782-5.358-15.373-5.6A5.227,5.227,0,0,0,238,15.206c.041.777-.011,1.641.009,2.415a18.077,18.077,0,0,0,.43,3.731,6.554,6.554,0,0,0,1.348,2.861,3.529,3.529,0,0,0,.349.333c2.847,2.356,10.6,4,12.787.024q.787-1.433,1.583-2.862c.284-.511.568-1.031.856-1.547Zm0,0" transform="translate(-151.472 0)"/>
    <path id="Path_327" data-name="Path 327" class="cls-8" d="M150.753,178.818l-9.1-4.9,4.2-4.2,4.9,9.108Zm0,0" transform="translate(-101.602 -121.73)"/>
    <path id="Path_328" data-name="Path 328" class="cls-6" d="M62.585,92.385A1.7,1.7,0,0,0,64.33,90.64L31.452,57.761l-1.745,1.746Zm0,0" transform="translate(-21.308 -41.431)"/>
    <path id="Path_329" data-name="Path 329" class="cls-9" d="M59.463,96.812c.089.839-.272,1.293-1.229,1.229L25.355,65.162l1.229-1.229Zm0,0" transform="translate(-18.187 -45.858)"/>
    <path id="Path_330" data-name="Path 330" class="cls-4" d="M26.925,50.777l-4.2,4.2-1.038-1.038,4.2-4.2Zm0,0" transform="translate(-15.554 -35.676)"/>
    <path id="Path_331" data-name="Path 331" class="cls-5" d="M19.048,44.98l-2.127,2.127a1.474,1.474,0,0,0,0,2.077l1.039,1.038,4.2-4.2L21.126,44.98a1.475,1.475,0,0,0-2.077,0Zm0,0" transform="translate(-11.83 -31.957)"/>
    <path id="Path_332" data-name="Path 332" class="cls-10" d="M165.78,193.7l-.176.175-3.831-2.433,1.568-1.568,2.438,3.826Zm0,0" transform="translate(-116.038 -136.194)"/>
    <path id="Path_333" data-name="Path 333" class="cls-9" d="M68.754,87.524c.841.089,1.293-.271,1.229-1.229L37.1,53.417l-1.229,1.229L68.753,87.525Zm0,0" transform="translate(-25.733 -38.315)"/>
  </g>
</svg>
