<svg xmlns="http://www.w3.org/2000/svg" xmlns:xlink="http://www.w3.org/1999/xlink" viewBox="0 0 133.8 133.8">
  <defs>
    <style>
      .cls-1 {
        fill: #55c2fa;
      }

      .cls-2 {
        fill: #fff;
      }

      .cls-3 {
        fill: #468cff;
      }

      .cls-4 {
        fill: #ff5b61;
      }

      .cls-5 {
        filter: url(#Path_313);
      }
    </style>
    <filter id="Path_313" x="0" y="0" width="133.8" height="133.8" filterUnits="userSpaceOnUse">
      <feOffset dy="3" input="SourceAlpha"/>
      <feGaussianBlur stdDeviation="3" result="blur"/>
      <feFlood flood-color="#a4a1fb" flood-opacity="0.302"/>
      <feComposite operator="in" in2="blur"/>
      <feComposite in="SourceGraphic"/>
    </filter>
  </defs>
  <g id="dich_tre" transform="translate(9 6)">
    <g id="Group_261" data-name="Group 261">
      <g class="cls-5" transform="matrix(1, 0, 0, 1, -9, -6)">
        <path id="Path_313-2" data-name="Path 313" class="cls-1" d="M57.9,115.8A57.9,57.9,0,1,0,0,57.9a58.012,58.012,0,0,0,57.9,57.9Zm0,0" transform="translate(9 6)"/>
      </g>
    </g>
    <rect id="Rectangle_681" data-name="Rectangle 681" class="cls-2" width="47.5" height="38.765" transform="translate(35.159 43.507)"/>
    <g id="Group_262" data-name="Group 262" transform="translate(24.403 21.55)">
      <path id="Path_314" data-name="Path 314" class="cls-3" d="M110.581,53.534H96.462V45.69A1.566,1.566,0,0,0,96,44.581l-6.273-6.273a1.555,1.555,0,0,0-.71-.381,1.471,1.471,0,0,0-.2-.04,1.5,1.5,0,0,0-.2-.041H72.929a1.568,1.568,0,0,0-1.569,1.569v6.275a1.568,1.568,0,0,0,1.569,1.569H87.049v6.275H68.223V39.414a1.569,1.569,0,0,0-2.678-1.109L59.27,44.58a1.568,1.568,0,0,0-.46,1.109v7.844H44.691A1.568,1.568,0,0,0,43.122,55.1v45.5a6.281,6.281,0,0,0,6.275,6.275h56.478a6.281,6.281,0,0,0,6.275-6.275V55.1A1.567,1.567,0,0,0,110.581,53.534ZM77.636,97.461A17.257,17.257,0,1,1,94.893,80.2,17.277,17.277,0,0,1,77.636,97.461Z" transform="translate(-43.122 -37.845)"/>
      <path id="Path_315" data-name="Path 315" class="cls-4" d="M159.851,156.361V147.6a1.569,1.569,0,0,0-3.138,0v9.413a1.566,1.566,0,0,0,.46,1.109l4.706,4.706a1.569,1.569,0,1,0,2.218-2.218Z" transform="translate(-123.768 -114.652)"/>
    </g>
  </g>
</svg>
