<svg xmlns="http://www.w3.org/2000/svg" xmlns:xlink="http://www.w3.org/1999/xlink" viewBox="0 0 170.2 192.25">
  <defs>
    <style>
      .cls-1 {
        opacity: 0.56;
      }

      .cls-1, .cls-3 {
        clip-path: url(#clip-path);
      }

      .cls-2 {
        fill: none;
      }

      .cls-4 {
        fill: #3d6eb2;
      }

      .cls-5 {
        fill: #4b8cc0;
      }

      .cls-6 {
        fill: #61accd;
      }

      .cls-7 {
        fill: #56b5ce;
      }

      .cls-8 {
        fill: #51c0d0;
      }

      .cls-9 {
        fill: #2d57a6;
      }

      .cls-10 {
        fill: #5079b9;
      }

      .cls-11 {
        fill: #618fc2;
      }

      .cls-12 {
        fill: #76b2d1;
      }

      .cls-13 {
        fill: #71bdd4;
      }

      .cls-14 {
        fill: #65c2d4;
      }

      .cls-15 {
        fill: #7acdd8;
      }

      .cls-16 {
        fill: #3765ad;
      }

      .cls-17 {
        fill: #305da9;
      }

      .cls-18 {
        fill: #5487bc;
      }

      .cls-19 {
        fill: #548fc0;
      }

      .cls-20 {
        fill: #64b1cf;
      }

      .cls-21 {
        fill: #54b5cd;
      }

      .cls-22 {
        fill: #48c0ce;
      }

      .cls-23 {
        fill: #2452a2;
      }

      .cls-24 {
        fill: #3067ad;
      }

      .cls-25 {
        fill: #3d7bb6;
      }

      .cls-26 {
        fill: #3488bb;
      }

      .cls-27 {
        fill: #42a4c4;
      }

      .cls-28 {
        fill: #fff;
      }
    </style>
    <clipPath id="clip-path">
      <path id="Path_1" data-name="Path 1" d="M224.2,179.9V98a14.235,14.235,0,0,0-7.1-12.3l-70.9-41a14.38,14.38,0,0,0-14.2,0l-70.9,41A14.235,14.235,0,0,0,54,98v81.9a14.235,14.235,0,0,0,7.1,12.3l70.9,41a14.38,14.38,0,0,0,14.2,0l70.9-41A14.235,14.235,0,0,0,224.2,179.9Z"/>
    </clipPath>
  </defs>
  <g id="Group_29" data-name="Group 29" transform="translate(-54 -42.825)">
    <g id="Group_27" data-name="Group 27">
      <g id="Group_26" data-name="Group 26">
        <g id="Group_1" data-name="Group 1" class="cls-1">
          <rect id="Rectangle_1" data-name="Rectangle 1" class="cls-2" width="277.68" height="277.68" transform="translate(-0.077 -0.126)"/>
        </g>
        <g id="Group_2" data-name="Group 2" class="cls-3">
          <path id="Path_2" data-name="Path 2" class="cls-4" d="M181.3,114.3h0l42.3,24.4h0V89.9h0Z"/>
        </g>
        <g id="Group_3" data-name="Group 3" class="cls-3">
          <path id="Path_4" data-name="Path 4" class="cls-5" d="M223.7,90,181.3,65.5v48.8Z"/>
        </g>
        <g id="Group_4" data-name="Group 4" class="cls-3">
          <path id="Path_6" data-name="Path 6" class="cls-6" d="M138.7,89.8l42.6,24.5h0V65.5L138.7,89.7Z"/>
        </g>
        <g id="Group_5" data-name="Group 5" class="cls-3">
          <path id="Path_8" data-name="Path 8" class="cls-7" d="M181.3,65.5,139,41V89.9Z"/>
        </g>
        <g id="Group_6" data-name="Group 6" class="cls-3">
          <path id="Path_10" data-name="Path 10" class="cls-8" d="M96.7,65.5,139,89.9V41L96.7,65.4Z"/>
        </g>
        <g id="Group_7" data-name="Group 7" class="cls-3">
          <path id="Path_12" data-name="Path 12" class="cls-9" d="M223.6,138.7l-42.3,24.4h0l42.3,24.4h0Z"/>
        </g>
        <g id="Group_8" data-name="Group 8" class="cls-3">
          <path id="Path_14" data-name="Path 14" class="cls-10" d="M223.6,138.7l-42.3-24.4v48.8Z"/>
        </g>
        <g id="Group_9" data-name="Group 9" class="cls-3">
          <path id="Path_16" data-name="Path 16" class="cls-11" d="M139,138.7l42.3,24.4h0V114.3Z"/>
        </g>
        <g id="Group_10" data-name="Group 10" class="cls-3">
          <path id="Path_18" data-name="Path 18" class="cls-12" d="M181.3,114.3,139,89.9v48.8Z"/>
        </g>
        <g id="Group_11" data-name="Group 11" class="cls-3">
          <path id="Path_20" data-name="Path 20" class="cls-13" d="M96.7,114.3,139,138.7h0V89.9h0Z"/>
        </g>
        <g id="Group_12" data-name="Group 12" class="cls-3">
          <path id="Path_22" data-name="Path 22" class="cls-14" d="M139,89.9,96.7,65.5v48.8Z"/>
        </g>
        <g id="Group_13" data-name="Group 13" class="cls-3">
          <path id="Path_24" data-name="Path 24" class="cls-15" d="M96.7,114.3h0V65.4h0L54.3,89.9l.1.1Z"/>
        </g>
        <g id="Group_14" data-name="Group 14" class="cls-3">
          <path id="Path_26" data-name="Path 26" class="cls-16" d="M181.3,211.9l42.3-24.4-42.3-24.4Z"/>
        </g>
        <g id="Group_15" data-name="Group 15" class="cls-3">
          <path id="Path_28" data-name="Path 28" class="cls-17" d="M181.3,163.1,139,187.5h0l42.3,24.4h0Z"/>
        </g>
        <g id="Group_16" data-name="Group 16" class="cls-3">
          <path id="Path_30" data-name="Path 30" class="cls-18" d="M139,187.5l42.3-24.4L139,138.7Z"/>
        </g>
        <g id="Group_17" data-name="Group 17" class="cls-3">
          <path id="Path_32" data-name="Path 32" class="cls-19" d="M139,138.7h0L96.7,163.1h0L139,187.5h0Z"/>
        </g>
        <g id="Group_18" data-name="Group 18" class="cls-3">
          <path id="Path_34" data-name="Path 34" class="cls-20" d="M96.7,114.3v48.8L139,138.7Z"/>
        </g>
        <g id="Group_19" data-name="Group 19" class="cls-3">
          <path id="Path_36" data-name="Path 36" class="cls-21" d="M96.7,163.1h0V114.3L54.4,138.7h0Z"/>
        </g>
        <g id="Group_20" data-name="Group 20" class="cls-3">
          <path id="Path_38" data-name="Path 38" class="cls-22" d="M54.4,89.9v48.8l42.3-24.4Z"/>
        </g>
        <g id="Group_21" data-name="Group 21" class="cls-3">
          <path id="Path_40" data-name="Path 40" class="cls-23" d="M139,236.4l42.3-24.5L139,187.5Z"/>
        </g>
        <g id="Group_22" data-name="Group 22" class="cls-3">
          <path id="Path_42" data-name="Path 42" class="cls-24" d="M139,187.5h0L96.7,211.9v.1L139,236.4V187.5Z"/>
        </g>
        <g id="Group_23" data-name="Group 23" class="cls-3">
          <path id="Path_44" data-name="Path 44" class="cls-25" d="M96.7,211.9,139,187.5,96.7,163.1Z"/>
        </g>
        <g id="Group_24" data-name="Group 24" class="cls-3">
          <path id="Path_46" data-name="Path 46" class="cls-26" d="M96.7,212V163.1h0L54.4,187.3h0L96.8,212Z"/>
        </g>
        <g id="Group_25" data-name="Group 25" class="cls-3">
          <path id="Path_48" data-name="Path 48" class="cls-27" d="M54.4,138.6v48.9l42.3-24.4Z"/>
        </g>
      </g>
    </g>
    <g id="Group_28" data-name="Group 28">
      <path id="Path_50" data-name="Path 50" class="cls-28" d="M85,122.1l8.4,8.4h24l4.1-4.1V96.5a3.51,3.51,0,0,0,2.2-3.3,3.6,3.6,0,1,0-5,3.3v28.7l-2.5,2.5H94.6L87,120.1a3.609,3.609,0,1,0-5.9,1.2A3.782,3.782,0,0,0,85,122.1Zm32.4-28.9a2.7,2.7,0,1,1,2.7,2.7A2.628,2.628,0,0,1,117.4,93.2ZM81.8,120.8l.1.1C82,120.9,81.9,120.8,81.8,120.8Zm.2.2Zm-.3-4.2a2.758,2.758,0,1,1,0,3.9h0A2.91,2.91,0,0,1,81.7,116.8Z"/>
      <path id="Path_51" data-name="Path 51" class="cls-28" d="M129.9,127.1l-10.4,10.4H87a3.51,3.51,0,0,0-3.3-2.2,3.6,3.6,0,1,0,3.3,5h33.7l11.2-11.2a3.606,3.606,0,1,0-2-2ZM83.7,141.6a2.7,2.7,0,1,1,2.7-2.7A2.689,2.689,0,0,1,83.7,141.6Zm47.6-17.8.2-.2c-.1.1-.1.2-.2.2a2.758,2.758,0,1,1,0,3.9,2.717,2.717,0,0,1,0-3.9c0,.1-.1.1,0,0C131.2,123.9,131.3,123.9,131.3,123.8Z"/>
      <path id="Path_52" data-name="Path 52" class="cls-28" d="M93.8,123a3.613,3.613,0,0,0,3.3-2.2h13.4a3.51,3.51,0,0,0,3.3,2.2,3.6,3.6,0,1,0-3.3-5H97.1a3.51,3.51,0,0,0-3.3-2.2,3.6,3.6,0,1,0,0,7.2Zm20-6.3a2.7,2.7,0,1,1-2.7,2.7A2.628,2.628,0,0,1,113.8,116.7Zm-20,0a2.7,2.7,0,1,1-2.7,2.7A2.689,2.689,0,0,1,93.8,116.7Z"/>
      <path id="Path_53" data-name="Path 53" class="cls-28" d="M181.5,120.8a3.51,3.51,0,0,0,3.3,2.2,3.6,3.6,0,1,0-3.3-5H152.8l-2.5-2.5V93.9l7.6-7.6a3.609,3.609,0,1,0-1.2-5.9,3.741,3.741,0,0,0-.8,3.9l-8.4,8.4v24l4.1,4.1Zm3.3-4.2a2.7,2.7,0,1,1-2.7,2.7A2.689,2.689,0,0,1,184.8,116.6ZM157.3,81a2.758,2.758,0,1,1,0,3.9A2.91,2.91,0,0,1,157.3,81Z"/>
      <path id="Path_54" data-name="Path 54" class="cls-28" d="M121,86.3l6.8,7v16.2a3.51,3.51,0,0,0-2.2,3.3,3.6,3.6,0,1,0,5-3.3V92.2L123,84.4a3.745,3.745,0,0,0-.7-3.9,3.607,3.607,0,0,0-5.2,5A3.822,3.822,0,0,0,121,86.3Zm11,26.5a2.7,2.7,0,1,1-2.7-2.7A2.689,2.689,0,0,1,132,112.8ZM121.6,80.9l-.2-.2C121.5,80.8,121.5,80.9,121.6,80.9Zm-3.7.1a2.759,2.759,0,1,1-.1,3.9A2.81,2.81,0,0,1,117.9,81Z"/>
      <path id="Path_55" data-name="Path 55" class="cls-28" d="M137.8,86.2V120L149,131.2a3.586,3.586,0,0,0,.8,3.9h0a3.606,3.606,0,1,0,5.1-5.1,3.741,3.741,0,0,0-3.9-.8l-10.4-10.4V86.2a3.51,3.51,0,0,0,2.2-3.3,3.6,3.6,0,0,0-7.2,0A3.51,3.51,0,0,0,137.8,86.2Zm12.5,44.4a2.758,2.758,0,1,1,0,3.9A2.909,2.909,0,0,1,150.3,130.6ZM139.2,80.2a2.7,2.7,0,1,1-2.7,2.7A2.625,2.625,0,0,1,139.2,80.2Z"/>
      <path id="Path_56" data-name="Path 56" class="cls-28" d="M162.2,93.1a3.6,3.6,0,1,0-5,3.3v13.4a3.51,3.51,0,0,0-2.2,3.3,3.6,3.6,0,1,0,5-3.3V96.4A3.613,3.613,0,0,0,162.2,93.1Zm-.8,20a2.7,2.7,0,1,1-2.7-2.7A2.628,2.628,0,0,1,161.4,113.1Zm-2.8-17.3a2.7,2.7,0,1,1,2.7-2.7A2.628,2.628,0,0,1,158.6,95.8Z"/>
      <path id="Path_57" data-name="Path 57" class="cls-28" d="M96.9,157.1a3.51,3.51,0,0,0-3.3-2.2,3.6,3.6,0,1,0,3.3,5h28.7l2.5,2.5V184l-7.6,7.6a3.609,3.609,0,1,0,1.2,5.9,3.741,3.741,0,0,0,.8-3.9l8.4-8.4v-24l-4.1-4.1H96.9Zm-3.3,4.1a2.7,2.7,0,1,1,2.7-2.7A2.689,2.689,0,0,1,93.6,161.2Zm27.6,35.5h0C121.3,196.6,121.2,196.6,121.2,196.7Zm-.2.2a2.758,2.758,0,1,1,0-3.9A2.717,2.717,0,0,1,121,196.9Z"/>
      <path id="Path_58" data-name="Path 58" class="cls-28" d="M116.1,184.8a3.6,3.6,0,1,0,5-3.3V168.1a3.51,3.51,0,0,0,2.2-3.3,3.6,3.6,0,1,0-5,3.3v13.4A3.613,3.613,0,0,0,116.1,184.8Zm.9-20a2.7,2.7,0,1,1,2.7,2.7A2.689,2.689,0,0,1,117,164.8Zm2.7,17.3a2.7,2.7,0,1,1-2.7,2.7A2.689,2.689,0,0,1,119.7,182.1Z"/>
      <path id="Path_59" data-name="Path 59" class="cls-28" d="M191.8,120.9l-7.1,7H168.5a3.51,3.51,0,0,0-3.3-2.2,3.6,3.6,0,1,0,3.3,5h17.4l7.9-7.8a3.609,3.609,0,1,0-1.2-5.9l.2-.2c-.1,0-.1.1-.2.2h0A3.416,3.416,0,0,0,191.8,120.9ZM165.2,132a2.7,2.7,0,1,1,2.7-2.7A2.689,2.689,0,0,1,165.2,132Zm32.1-10.7Zm-4.1-3.6a2.758,2.758,0,0,1,3.9,3.9l.2-.2-.2.2a2.808,2.808,0,0,1-3.9,0A2.716,2.716,0,0,1,193.2,117.7Z"/>
      <path id="Path_60" data-name="Path 60" class="cls-28" d="M195.1,135.4a3.613,3.613,0,0,0-3.3,2.2H158.1l-11.2,11.2a3.609,3.609,0,1,0,1.2,5.9,3.741,3.741,0,0,0,.8-3.9l10.4-10.4h32.6a3.51,3.51,0,0,0,3.3,2.2,3.585,3.585,0,0,0,3.6-3.6A3.881,3.881,0,0,0,195.1,135.4Zm-47.4,18.4Zm-.2.3.1-.1c0-.1-.1,0-.1.1l-.1.1-.1.1.1-.1a.1.1,0,0,1,.1-.1,2.758,2.758,0,1,1,0-3.9A2.91,2.91,0,0,1,147.5,154.1Zm47.6-12.4a2.7,2.7,0,1,1,2.7-2.7A2.689,2.689,0,0,1,195.1,141.7Z"/>
      <path id="Path_61" data-name="Path 61" class="cls-28" d="M93.5,150h16.2a3.51,3.51,0,0,0,3.3,2.2,3.6,3.6,0,1,0-3.3-5H92.3L84.4,155a3.609,3.609,0,1,0,1.2,5.9,3.741,3.741,0,0,0,.8-3.9Zm19.5-4.1a2.7,2.7,0,1,1-2.7,2.7A2.628,2.628,0,0,1,113,145.9ZM81.1,156.4l-.1.1Zm3.9,3.8a2.758,2.758,0,0,1-3.9-3.9l-.1.1.1-.1.1-.1-.1.1a2.808,2.808,0,0,1,3.9,0A2.716,2.716,0,0,1,85,160.2Z"/>
      <path id="Path_62" data-name="Path 62" class="cls-28" d="M193.2,155.8l-8.4-8.4h-24l-4.1,4.1v29.9a3.51,3.51,0,0,0-2.2,3.3,3.6,3.6,0,1,0,5-3.3V152.7l2.5-2.5h21.7l7.6,7.6a3.609,3.609,0,1,0,5.9-1.2A4,4,0,0,0,193.2,155.8Zm-32.4,28.8a2.7,2.7,0,1,1-2.7-2.7A2.689,2.689,0,0,1,160.8,184.6Zm35.8-27.2-.1-.1A.1.1,0,0,1,196.6,157.4Zm-.4-.5Zm.2,4.2a2.758,2.758,0,1,1,0-3.9A2.717,2.717,0,0,1,196.4,161.1Z"/>
      <path id="Path_63" data-name="Path 63" class="cls-28" d="M184.4,154.9a3.613,3.613,0,0,0-3.3,2.2H167.7a3.51,3.51,0,0,0-3.3-2.2,3.6,3.6,0,1,0,3.3,5h13.4a3.51,3.51,0,0,0,3.3,2.2,3.585,3.585,0,0,0,3.6-3.6A3.718,3.718,0,0,0,184.4,154.9Zm-20,6.3a2.7,2.7,0,1,1,2.7-2.7A2.689,2.689,0,0,1,164.4,161.2Zm20,0a2.7,2.7,0,1,1,2.7-2.7A2.689,2.689,0,0,1,184.4,161.2Z"/>
      <path id="Path_64" data-name="Path 64" class="cls-28" d="M161.1,192.6l-.2-.2-.3-.3.3.3a3.428,3.428,0,0,0-3.8-.8l-6.8-7V168.4a3.51,3.51,0,0,0,2.2-3.3,3.6,3.6,0,1,0-5,3.3v17.3l7.6,7.8a3.745,3.745,0,0,0,.7,3.9,3.607,3.607,0,0,0,5.2-5A.349.349,0,0,0,161.1,192.6Zm-14.9-27.5a2.7,2.7,0,1,1,2.7,2.7A2.689,2.689,0,0,1,146.2,165.1Zm10,31.4Zm.5.6c0,.1.1.1,0,0Zm3.6-.2a2.81,2.81,0,0,1-3.9-.1h0a2.759,2.759,0,1,1,3.9.1Z"/>
      <path id="Path_65" data-name="Path 65" class="cls-28" d="M140.4,191.6V157.9l-11.2-11.2a3.586,3.586,0,0,0-.8-3.9l.1.1-.1-.1h0a3.606,3.606,0,1,0-5.1,5.1,3.741,3.741,0,0,0,3.9.8l10.4,10.4v32.6a3.51,3.51,0,0,0-2.2,3.3,3.6,3.6,0,0,0,7.2,0A3.755,3.755,0,0,0,140.4,191.6Zm-12.6-44.3a2.758,2.758,0,1,1,0-3.9A2.717,2.717,0,0,1,127.8,147.3ZM139,197.7a2.7,2.7,0,1,1,2.7-2.7A2.689,2.689,0,0,1,139,197.7Z"/>
      <rect id="Rectangle_2" data-name="Rectangle 2" class="cls-28" width="10.6" height="10.6" transform="translate(131.61 139.042) rotate(-45)"/>
      <path id="Path_66" data-name="Path 66" class="cls-28" d="M139.2,151.3,151.5,139l-12.3-12.3L126.8,139Zm9.9-12.3-9.9,9.9-9.9-9.9,9.9-9.9Z"/>
    </g>
  </g>
</svg>
