<svg id="phanquyen" xmlns="http://www.w3.org/2000/svg" viewBox="0 0 18.125 18.125">
  <defs>
    <style>
      .cls-1 {
        fill: none;
      }

      .cls-2 {
        fill: #a4a3b9;
      }
    </style>
  </defs>
  <path id="Path_265" data-name="Path 265" class="cls-1" d="M0,0H18.125V18.125H0Z"/>
  <path id="Path_266" data-name="Path 266" class="cls-2" d="M12.328,9.531a2.266,2.266,0,1,0-2.266-2.266A2.256,2.256,0,0,0,12.328,9.531Zm-6.042,0A2.266,2.266,0,1,0,4.021,7.266,2.256,2.256,0,0,0,6.286,9.531Zm0,1.51c-1.76,0-5.286.884-5.286,2.643v1.888H11.573V13.685C11.573,11.925,8.046,11.042,6.286,11.042Zm6.042,0c-.219,0-.468.015-.733.038a3.187,3.187,0,0,1,1.488,2.605v1.888h4.531V13.685C17.615,11.925,14.088,11.042,12.328,11.042Z" transform="translate(-0.245 -1.224)"/>
</svg>
